# 3ds Max Wavefront OBJ Exporter v0.97b - (c)2007 guruware
# File Created: 28.06.2017 19:39:42

mtllib water_vial.mtl

#
# object vial
#

v  16.6606 235.0203 32.6307
v  16.2296 236.2406 31.5947
v  19.7426 236.2280 31.6005
v  19.2995 235.0108 32.6351
v  22.2224 236.1781 34.0885
v  21.1622 234.9735 34.5039
v  22.2164 236.1203 37.6010
v  21.1577 234.9299 37.1425
v  19.7280 236.0882 40.0807
v  19.2885 234.9059 39.0051
v  16.2149 236.1008 40.0748
v  16.6496 234.9153 39.0006
v  13.7352 236.1507 37.5869
v  14.7868 234.9527 37.1318
v  13.7412 236.2085 34.0743
v  14.7914 234.9962 34.4933
v  13.0894 238.2385 33.8335
v  15.9648 238.2756 30.9682
v  13.0824 238.1716 37.8923
v  15.9478 238.1141 40.7670
v  20.0072 238.0995 40.7738
v  22.8825 238.1365 37.9086
v  22.8895 238.2034 33.8498
v  20.0241 238.2610 30.9751
v  15.9391 241.6284 30.9365
v  13.0159 241.5871 33.8531
v  15.3355 243.8325 34.8524
v  16.9027 243.8540 33.2891
v  13.0088 241.5191 37.9827
v  15.3317 243.7959 37.0659
v  15.9242 241.4606 40.9077
v  16.8943 243.7646 38.6338
v  20.0543 241.4458 40.9145
v  19.1082 243.7567 38.6375
v  22.9798 241.4835 37.9993
v  20.6763 243.7768 37.0749
v  22.9869 241.5515 33.8698
v  20.6801 243.8133 34.8613
v  20.0715 241.6099 30.9448
v  19.1174 243.8447 33.2934
v  17.2779 246.3876 34.2178
v  18.7581 246.3823 34.2203
v  19.8030 246.3613 35.2686
v  19.8005 246.3369 36.7486
v  18.7520 246.3235 37.7934
v  17.2717 246.3287 37.7910
v  16.2269 246.3497 36.7427
v  16.2294 246.3742 35.2626
v  15.9540 249.7144 35.1981
v  17.1712 249.7300 33.9852
v  15.9510 249.6861 36.9163
v  17.1640 249.6616 38.1332
v  18.8824 249.6554 38.1360
v  20.0996 249.6711 36.9231
v  20.1026 249.6994 35.2050
v  18.8896 249.7239 33.9881
v  16.6579 234.2748 32.6184
v  14.7888 234.2508 34.4810
v  14.7842 234.2073 37.1195
v  16.6469 234.1698 38.9884
v  19.2858 234.1604 38.9928
v  21.1550 234.1845 37.1302
v  21.1595 234.2280 34.4916
v  19.2968 234.2654 32.6228
v  17.9719 234.2176 35.8056
v  16.4836 249.9207 35.4216
v  17.3901 249.9319 34.5179
v  16.4814 249.8996 36.7014
v  17.3849 249.8814 37.6078
v  18.6648 249.8768 37.6100
v  19.5715 249.8884 36.7065
v  19.5737 249.9095 35.4267
v  18.6702 249.9278 34.5204
v  15.8839 239.9700 30.7855
v  20.1176 239.9548 30.7925
v  23.1062 239.8948 33.7909
v  23.0989 239.8250 38.0240
v  20.1000 239.7864 41.0124
v  15.8663 239.8016 41.0053
v  12.8777 239.8615 38.0070
v  12.8850 239.9313 33.7738
# 81 vertices

vn 0.2128 -0.9260 -0.3118
vn 0.7083 -0.6925 -0.1369
vn 0.7083 -0.6925 -0.1368
vn 0.8716 -0.3759 0.3146
vn 0.8717 -0.3759 0.3145
vn 0.8717 -0.3759 0.3146
vn 0.6071 -0.1616 0.7780
vn 0.6071 -0.1617 0.7780
vn 0.0695 -0.1753 0.9821
vn 0.0696 -0.1753 0.9821
vn -0.4260 -0.4087 0.8071
vn -0.4260 -0.4088 0.8071
vn -0.5893 -0.7254 0.3557
vn -0.3247 -0.9396 -0.1078
vn -0.3247 -0.9397 -0.1078
vn -0.5233 -0.7508 -0.4031
vn -0.5232 -0.7508 -0.4031
vn -0.8580 -0.4798 0.1833
vn -0.8581 -0.4797 0.1834
vn -0.8580 -0.4798 0.1834
vn -0.6514 -0.0791 0.7546
vn -0.6514 -0.0792 0.7546
vn -0.0243 0.2164 0.9760
vn 0.6559 0.2337 0.7178
vn 0.6558 0.2337 0.7178
vn 0.9906 -0.0374 0.1313
vn 0.9906 -0.0375 0.1314
vn 0.9906 -0.0374 0.1314
vn 0.9906 -0.0375 0.1313
vn 0.7839 -0.4381 -0.4399
vn 0.7840 -0.4381 -0.4398
vn 0.7840 -0.4380 -0.4399
vn 0.1569 -0.7336 -0.6613
vn -0.5870 0.2329 -0.7754
vn -0.5869 0.2331 -0.7754
vn -0.5870 0.2332 -0.7753
vn -0.5870 0.2330 -0.7754
vn -0.8336 0.4328 -0.3434
vn -0.8335 0.4328 -0.3433
vn -0.8336 0.4328 -0.3433
vn -0.6814 0.7278 0.0774
vn -0.6813 0.7279 0.0774
vn -0.6814 0.7278 0.0775
vn -0.6813 0.7279 0.0775
vn -0.2194 0.9455 0.2405
vn -0.2194 0.9455 0.2406
vn 0.2816 0.9582 0.0504
vn 0.2816 0.9582 0.0503
vn 0.5282 0.7585 -0.3817
vn 0.5281 0.7586 -0.3816
vn 0.3759 0.4635 -0.8024
vn 0.3760 0.4634 -0.8025
vn -0.0860 0.2457 -0.9655
vn -0.0860 0.2456 -0.9656
vn -0.0860 0.2458 -0.9655
vn 0.0199 -0.1984 -0.9799
vn 0.0199 -0.1985 -0.9799
vn 0.6429 0.0954 -0.7600
vn 0.6430 0.0953 -0.7600
vn 0.6430 0.0954 -0.7599
vn 0.8483 0.4934 -0.1923
vn 0.8483 0.4934 -0.1924
vn 0.8482 0.4935 -0.1923
vn 0.5157 0.7627 0.3904
vn 0.5156 0.7628 0.3903
vn -0.1601 0.7456 0.6469
vn -0.1602 0.7456 0.6469
vn -0.7832 0.4520 0.4269
vn -0.7832 0.4520 0.4270
vn -0.7832 0.4521 0.4269
vn -0.9886 0.0540 -0.1406
vn -0.9886 0.0539 -0.1407
vn -0.9886 0.0541 -0.1407
vn -0.6559 -0.2155 -0.7234
vn -0.6559 -0.2154 -0.7234
vn -0.5994 -0.5874 -0.5437
vn -0.5994 -0.5875 -0.5437
vn -0.9502 -0.3034 0.0709
vn -0.9503 -0.3032 0.0708
vn -0.9503 -0.3033 0.0709
vn -0.7337 0.1166 0.6694
vn -0.7337 0.1164 0.6694
vn -0.7337 0.1165 0.6694
vn -0.0766 0.4262 0.9014
vn -0.0766 0.4261 0.9014
vn -0.0765 0.4261 0.9014
vn -0.0766 0.4260 0.9015
vn 0.6362 0.4441 0.6309
vn 0.6361 0.4442 0.6309
vn 0.6361 0.4441 0.6310
vn 0.9870 0.1601 0.0164
vn 0.9870 0.1600 0.0163
vn 0.9870 0.1600 0.0164
vn 0.7704 -0.2597 -0.5823
vn 0.7704 -0.2598 -0.5822
vn 0.7704 -0.2598 -0.5823
vn 0.1133 -0.5694 -0.8142
vn 0.1133 -0.5693 -0.8143
vn -0.6201 -0.5177 -0.5895
vn -0.9722 -0.2326 0.0273
vn -0.9722 -0.2325 0.0274
vn -0.7548 0.1888 0.6282
vn -0.7548 0.1887 0.6282
vn -0.7548 0.1888 0.6281
vn -0.0953 0.4996 0.8610
vn 0.6201 0.5177 0.5895
vn 0.9722 0.2325 -0.0274
vn 0.9722 0.2326 -0.0274
vn 0.7548 -0.1887 -0.6282
vn 0.7548 -0.1888 -0.6282
vn 0.0953 -0.4996 -0.8610
vn 0.0953 -0.4995 -0.8610
vn 0.2139 -0.8345 0.5078
vn 0.2139 -0.8344 0.5079
vn -0.4290 0.5824 -0.6905
vn -0.4290 0.5823 -0.6906
vn -0.4290 0.5823 -0.6905
vn -0.5599 0.6882 -0.4613
vn -0.5599 0.6883 -0.4613
vn -0.4791 0.8449 -0.2380
vn -0.2340 0.9604 -0.1515
vn -0.2340 0.9604 -0.1514
vn 0.0319 0.9671 -0.2524
vn 0.0319 0.9671 -0.2523
vn 0.1627 0.8612 -0.4816
vn 0.1627 0.8611 -0.4816
vn 0.0819 0.7046 -0.7049
vn -0.1631 0.5890 -0.7915
vn -0.1632 0.5890 -0.7915
vn 0.1210 -0.5989 -0.7916
vn 0.0789 -0.4354 -0.8968
vn 0.7755 -0.2905 -0.5606
vn 0.7755 -0.2904 -0.5606
vn 0.7366 -0.1254 -0.6646
vn 0.7366 -0.1255 -0.6646
vn 0.9912 0.1277 0.0356
vn 0.9912 0.1276 0.0356
vn 0.9533 0.2947 -0.0655
vn 0.9533 0.2948 -0.0655
vn 0.6418 0.4106 0.6477
vn 0.6417 0.4106 0.6477
vn 0.6021 0.5791 0.5496
vn 0.6022 0.5791 0.5496
vn -0.0681 0.3926 0.9172
vn -0.1111 0.5610 0.8203
vn -0.1111 0.5610 0.8204
vn -0.1112 0.5610 0.8204
vn -0.7226 0.0843 0.6861
vn -0.7226 0.0842 0.6861
vn -0.7688 0.2511 0.5882
vn -0.7688 0.2510 0.5882
vn -0.9383 -0.3340 0.0899
vn -0.9383 -0.3339 0.0899
vn -0.9855 -0.1692 -0.0109
vn -0.9855 -0.1691 -0.0110
vn -0.9855 -0.1692 -0.0110
vn -0.5889 -0.6168 -0.5222
vn -0.5889 -0.6169 -0.5222
vn -0.6344 -0.4534 -0.6261
vn -0.6344 -0.4536 -0.6260
vn -0.6344 -0.4535 -0.6260
# 161 vertex normals

vt 0.4933 0.1234 0.0000
vt 0.5315 0.1590 0.0000
vt 0.4622 0.2064 0.0000
vt 0.4276 0.1697 0.0000
vt 0.3916 0.2529 0.0000
vt 0.3596 0.2156 0.0000
vt 0.3205 0.2995 0.0000
vt 0.2918 0.2618 0.0000
vt 0.2480 0.3462 0.0000
vt 0.2252 0.3073 0.0000
vt 0.1704 0.3897 0.0000
vt 0.1578 0.3467 0.0000
vt 0.0865 0.4204 0.0000
vt 0.0879 0.3660 0.0000
vt 0.5936 0.0185 0.0000
vt 0.6469 0.0384 0.0000
vt 0.5966 0.1055 0.0000
vt 0.5513 0.0744 0.0000
vt 0.6507 0.1532 0.0000
vt 0.5768 0.2115 0.0000
vt 0.7163 0.0819 0.0000
vt 0.1941 0.4515 0.0000
vt 0.1083 0.4978 0.0000
vt 0.2747 0.4033 0.0000
vt 0.3526 0.3574 0.0000
vt 0.4278 0.3106 0.0000
vt 0.5024 0.2628 0.0000
vt 0.6279 0.2965 0.0000
vt 0.7053 0.2438 0.0000
vt 0.7450 0.3276 0.0000
vt 0.6828 0.3730 0.0000
vt 0.7951 0.1952 0.0000
vt 0.8041 0.3005 0.0000
vt 0.1908 0.6059 0.0000
vt 0.2590 0.5402 0.0000
vt 0.3376 0.6115 0.0000
vt 0.2891 0.6563 0.0000
vt 0.3353 0.4963 0.0000
vt 0.4045 0.5676 0.0000
vt 0.4091 0.4489 0.0000
vt 0.4761 0.5209 0.0000
vt 0.4820 0.4006 0.0000
vt 0.5480 0.4722 0.0000
vt 0.5536 0.3493 0.0000
vt 0.6176 0.4221 0.0000
vt 0.5420 0.5774 0.0000
vt 0.5935 0.5546 0.0000
vt 0.6200 0.6357 0.0000
vt 0.5796 0.6543 0.0000
vt 0.4941 0.6068 0.0000
vt 0.5418 0.6782 0.0000
vt 0.4504 0.6424 0.0000
vt 0.5072 0.7070 0.0000
vt 0.4119 0.6837 0.0000
vt 0.4769 0.7404 0.0000
vt 0.3796 0.7293 0.0000
vt 0.4522 0.7774 0.0000
vt 0.3544 0.7780 0.0000
vt 0.4345 0.8138 0.0000
vt 0.6475 0.5393 0.0000
vt 0.7026 0.5331 0.0000
vt 0.7034 0.6174 0.0000
vt 0.6633 0.6228 0.0000
vt 0.6892 0.7245 0.0000
vt 0.6582 0.7344 0.0000
vt 0.7270 0.7216 0.0000
vt 0.5435 0.8359 0.0000
vt 0.5320 0.8707 0.0000
vt 0.5598 0.8088 0.0000
vt 0.5801 0.7857 0.0000
vt 0.6038 0.7659 0.0000
vt 0.6300 0.7490 0.0000
vt 0.2080 0.9759 0.0000
vt 0.1378 0.9715 0.0000
vt 0.1432 0.9565 0.0000
vt 0.2107 0.9462 0.0000
vt 0.2359 0.6965 0.0000
vt 0.3076 0.7079 0.0000
vt 0.2977 0.7402 0.0000
vt 0.2359 0.7183 0.0000
vt 0.1636 0.7109 0.0000
vt 0.1738 0.7277 0.0000
vt 0.1026 0.7537 0.0000
vt 0.1237 0.7658 0.0000
vt 0.0607 0.8175 0.0000
vt 0.0958 0.8228 0.0000
vt 0.0462 0.8881 0.0000
vt 0.0680 0.8786 0.0000
vt 0.0777 0.9456 0.0000
vt 0.0893 0.9309 0.0000
vt 0.1550 0.8700 0.0000
vt 0.2138 0.8030 0.0000
vt 0.6923 0.7362 0.0000
vt 0.6640 0.7465 0.0000
vt 0.7238 0.7356 0.0000
vt 0.5584 0.8430 0.0000
vt 0.5527 0.8720 0.0000
vt 0.5728 0.8179 0.0000
vt 0.5920 0.7963 0.0000
vt 0.6141 0.7775 0.0000
vt 0.6382 0.7609 0.0000
vt 0.6058 0.2532 0.0000
vt 0.5291 0.3069 0.0000
vt 0.4537 0.3563 0.0000
vt 0.3782 0.4038 0.0000
vt 0.3009 0.4501 0.0000
vt 0.2238 0.5011 0.0000
vt 0.2252 0.4962 0.0000
vt 0.1431 0.5572 0.0000
vt 0.7651 0.1338 0.0000
vt 0.6844 0.1969 0.0000
# 111 texture coords

g vial
usemtl body
s off
f 1/1/1 2/2/1 3/3/1 4/4/1 
f 4/4/2 3/3/3 5/5/2 6/6/3 
f 6/6/4 5/5/4 7/7/5 8/8/6 
f 8/8/7 7/7/7 9/9/8 10/10/7 
f 10/10/9 9/9/10 11/11/9 12/12/10 
f 12/12/11 11/11/12 13/13/11 14/14/12 
f 14/15/13 13/16/13 15/17/13 16/18/13 
f 2/2/14 1/1/14 16/18/14 15/17/15 
f 2/2/16 15/17/17 17/19/16 18/20/16 
f 15/17/18 13/16/19 19/21/20 17/19/19 
f 13/13/21 11/11/21 20/22/21 19/23/22 
f 11/11/23 9/9/23 21/24/23 20/22/23 
f 9/9/24 7/7/25 22/25/25 21/24/25 
f 7/7/26 5/5/27 23/26/28 22/25/29 
f 5/5/30 3/3/31 24/27/30 23/26/32 
f 3/3/33 2/2/33 18/20/33 24/27/33 
f 25/28/34 26/29/35 27/30/36 28/31/37 
f 26/29/38 29/32/38 30/33/39 27/30/40 
f 29/34/41 31/35/42 32/36/43 30/37/44 
f 31/35/45 33/38/45 34/39/45 32/36/46 
f 33/38/47 35/40/47 36/41/48 34/39/47 
f 35/40/49 37/42/49 38/43/50 36/41/49 
f 37/42/51 39/44/52 40/45/52 38/43/51 
f 39/44/53 25/28/54 28/31/55 40/45/55 
f 40/46/56 28/47/56 41/48/56 42/49/57 
f 38/50/58 40/46/59 42/49/58 43/51/60 
f 36/52/61 38/50/62 43/51/61 44/53/63 
f 34/54/64 36/52/64 44/53/65 45/55/64 
f 32/56/66 34/54/67 45/55/66 46/57/66 
f 30/58/68 32/56/69 46/57/68 47/59/70 
f 27/60/71 30/61/72 47/62/73 48/63/72 
f 28/47/74 27/60/75 48/63/74 41/48/75 
f 41/48/76 48/63/77 49/64/77 50/65/76 
f 48/63/78 47/62/79 51/66/80 49/64/78 
f 47/59/81 46/57/82 52/67/82 51/68/83 
f 46/57/84 45/55/85 53/69/86 52/67/87 
f 45/55/88 44/53/89 54/70/90 53/69/88 
f 44/53/91 43/51/91 55/71/92 54/70/93 
f 43/51/94 42/49/95 56/72/95 55/71/96 
f 42/49/97 41/48/98 50/65/98 56/72/98 
f 16/73/99 1/74/99 57/75/99 58/76/99 
f 14/77/100 16/78/101 58/79/101 59/80/101 
f 12/81/102 14/77/103 59/80/102 60/82/104 
f 10/83/105 12/81/105 60/82/105 61/84/105 
f 8/85/106 10/83/106 61/84/106 62/86/106 
f 6/87/107 8/85/108 62/86/107 63/88/107 
f 4/89/109 6/87/110 63/88/110 64/90/110 
f 1/74/111 4/89/112 64/90/111 57/75/111 
f 65/91/113 57/75/114 64/90/114 
f 65/91/113 64/90/114 63/88/113 
f 65/91/113 63/88/113 62/86/113 
f 65/92/113 62/86/113 61/84/113 
f 65/92/113 61/84/113 60/82/113 
f 65/92/113 60/82/113 59/80/113 
f 65/92/113 59/80/113 58/79/114 
f 58/76/114 57/75/113 65/91/113 
f 50/65/115 49/64/116 66/93/117 67/94/116 
f 49/64/118 51/66/119 68/95/119 66/93/119 
f 51/68/120 52/67/120 69/96/120 68/97/120 
f 52/67/121 53/69/121 70/98/121 69/96/122 
f 53/69/123 54/70/124 71/99/123 70/98/123 
f 54/70/125 55/71/126 72/100/126 71/99/125 
f 55/71/127 56/72/127 73/101/127 72/100/127 
f 56/72/128 50/65/129 67/94/129 73/101/129 
f 18/20/130 74/102/130 75/103/130 24/27/130 
f 74/102/131 25/28/131 39/44/131 75/103/131 
f 24/27/132 75/103/132 76/104/132 23/26/133 
f 75/103/134 39/44/135 37/42/134 76/104/135 
f 23/26/136 76/104/137 77/105/136 22/25/137 
f 76/104/138 37/42/139 35/40/138 77/105/139 
f 22/25/140 77/105/141 78/106/140 21/24/141 
f 77/105/142 35/40/143 33/38/142 78/106/143 
f 21/24/144 78/106/144 79/107/144 20/22/144 
f 78/106/145 33/38/146 31/35/146 79/107/147 
f 20/22/148 79/108/148 80/109/149 19/23/149 
f 79/108/150 31/35/150 29/34/150 80/109/151 
f 19/21/152 80/110/152 81/111/153 17/19/153 
f 80/110/154 29/32/155 26/29/156 81/111/155 
f 17/19/157 81/111/158 74/102/158 18/20/157 
f 81/111/159 26/29/159 25/28/160 74/102/161 
# 72 polygons - 8 triangles

#
# object cork
#

v  17.3242 252.0750 34.3745
v  16.3128 252.0621 35.3824
v  16.3104 252.0388 36.8101
v  17.3183 252.0184 37.8214
v  18.7520 252.0699 34.3768
v  18.7461 252.0132 37.8237
v  19.7599 252.0496 35.3881
v  19.7575 252.0262 36.8158
v  16.4836 249.9207 35.4216
v  16.1450 251.6359 35.3062
v  17.2540 251.6500 34.2010
v  17.3901 249.9319 34.5179
v  16.4814 249.8996 36.7014
v  16.1424 251.6102 36.8717
v  17.3849 249.8814 37.6078
v  17.2476 251.5880 37.9806
v  18.6648 249.8768 37.6100
v  18.8132 251.5823 37.9831
v  19.5715 249.8884 36.7065
v  19.9222 251.5965 36.8780
v  19.5737 249.9095 35.4267
v  19.9249 251.6221 35.3123
v  18.6702 249.9278 34.5204
v  18.8196 251.6444 34.2036
# 24 vertices

vn 0.0036 0.9999 0.0164
vn 0.0037 0.9999 0.0164
vn 0.0035 0.9999 0.0164
vn -0.6928 -0.1836 -0.6974
vn -0.6567 0.3754 -0.6541
vn -0.9810 -0.1940 -0.0049
vn -0.9308 0.3655 0.0044
vn -0.6951 -0.2063 0.6887
vn -0.6589 0.3538 0.6638
vn -0.0024 -0.2135 0.9769
vn -0.0003 0.3470 0.9379
vn 0.6913 -0.2113 0.6910
vn 0.6592 0.3491 0.6660
vn 0.9796 -0.2010 -0.0016
vn 0.9334 0.3588 0.0075
vn 0.6936 -0.1887 -0.6952
vn 0.6615 0.3706 -0.6519
vn 0.0011 -0.1814 -0.9834
vn 0.0029 0.3775 -0.9260
# 19 vertex normals

vt 0.8708 0.4931 0.0000
vt 0.8951 0.5188 0.0000
vt 0.8941 0.5542 0.0000
vt 0.8684 0.5785 0.0000
vt 0.8354 0.4921 0.0000
vt 0.8330 0.5775 0.0000
vt 0.8097 0.5164 0.0000
vt 0.8087 0.5518 0.0000
vt 0.8461 0.7069 0.0000
vt 0.8970 0.7314 0.0000
vt 0.8799 0.7634 0.0000
vt 0.8297 0.7365 0.0000
vt 0.9087 0.7375 0.0000
vt 0.8922 0.7695 0.0000
vt 0.8606 0.6774 0.0000
vt 0.9145 0.6980 0.0000
vt 0.9267 0.7064 0.0000
vt 0.7349 0.8826 0.0000
vt 0.7827 0.9123 0.0000
vt 0.7642 0.9449 0.0000
vt 0.7172 0.9109 0.0000
vt 0.7956 0.9196 0.0000
vt 0.7795 0.9512 0.0000
vt 0.7531 0.8526 0.0000
vt 0.8018 0.8819 0.0000
vt 0.8145 0.8896 0.0000
vt 0.7725 0.8227 0.0000
vt 0.8215 0.8527 0.0000
vt 0.8346 0.8604 0.0000
vt 0.7925 0.7936 0.0000
vt 0.8416 0.8239 0.0000
vt 0.8550 0.8312 0.0000
vt 0.8119 0.7650 0.0000
vt 0.8615 0.7944 0.0000
vt 0.8745 0.8010 0.0000
# 35 texture coords

g cork
usemtl skirt
s off
f 82/112/162 83/113/162 84/114/162 
f 82/112/163 84/114/163 85/115/163 
f 86/116/162 82/112/162 85/115/162 
f 86/116/162 85/115/162 87/117/162 
f 88/118/162 86/116/162 87/117/162 
f 88/118/164 87/117/164 89/119/164 
f 90/120/165 91/121/165 92/122/165 93/123/165 
f 91/121/166 83/124/166 82/125/166 92/122/166 
f 94/126/167 95/127/167 91/121/167 90/120/167 
f 95/127/168 84/128/168 83/124/168 91/121/168 
f 96/129/169 97/130/169 95/131/169 94/132/169 
f 97/130/170 85/133/170 84/134/170 95/131/170 
f 98/135/171 99/136/171 97/130/171 96/129/171 
f 99/136/172 87/137/172 85/133/172 97/130/172 
f 100/138/173 101/139/173 99/136/173 98/135/173 
f 101/139/174 89/140/174 87/137/174 99/136/174 
f 102/141/175 103/142/175 101/139/175 100/138/175 
f 103/142/176 88/143/176 89/140/176 101/139/176 
f 104/144/177 105/145/177 103/142/177 102/141/177 
f 105/145/178 86/146/178 88/143/178 103/142/178 
f 93/123/179 92/122/179 105/145/179 104/144/179 
f 92/122/180 82/125/180 86/146/180 105/145/180 
# 16 polygons - 6 triangles

